<svg width="240" height="240" viewBox="0 0 240 240" xmlns="http://www.w3.org/2000/svg">
  <!-- Background -->
  <rect width="240" height="240" fill="#FAF8F5" rx="40" ry="40" />

  <g transform="translate(0, 40)">
     <!-- N Path -->
     <path d="M60 40 V120 H50 V40 H40 V30 H80 L110 120 V30 H120 V120 H100 L70 30 H60 V40 Z" fill="#3D5A44"/>
     
     <!-- W Text (Using serif fallback for safety) -->
     <text x="155" y="110" font-size="100" fill="#3D5A44" text-anchor="middle" font-family="serif" font-weight="bold">W</text>

     <!-- Floral Overlay -->
     <g stroke="#3D5A44" stroke-width="2" fill="none">
         <!-- Center Star Lily -->
         <g transform="translate(120, 95) scale(0.4)">
             <path d="M0 0 Q 10 -20 0 -40 Q -10 -20 0 0" />
             <path d="M0 0 Q 30 -10 50 10 Q 30 15 0 0" />
             <path d="M0 0 Q 20 30 10 50 Q -10 30 0 0" />
             <path d="M0 0 Q -20 30 -30 10 Q -10 10 0 0" />
             <path d="M0 0 Q -30 -10 -40 -30 Q -10 -20 0 0" />
             <!-- Stamens -->
             <path d="M0 0 L 0 -25" stroke-width="1" />
             <circle cx="0" cy="-28" r="3" fill="#3D5A44" stroke="none" />
             <path d="M0 0 L 20 10" stroke-width="1" />
             <circle cx="23" cy="12" r="3" fill="#3D5A44" stroke="none" />
             <path d="M0 0 L -15 20" stroke-width="1" />
             <circle cx="-17" cy="23" r="3" fill="#3D5A44" stroke="none" />
         </g>

         <!-- Upper Trumpet Flower -->
         <g transform="translate(135, 60) rotate(15) scale(0.3)">
             <path d="M0 0 Q 10 -30 30 -40 Q 50 -30 40 0 Q 20 10 0 0 Z" />
             <path d="M20 -20 Q 25 -40 20 -50" stroke-width="1" />
             <circle cx="20" cy="-53" r="4" fill="#3D5A44" stroke="none" />
         </g>

         <!-- Vines -->
         <path d="M110 110 Q 120 95 130 80" />
         <path d="M120 95 Q 100 100 90 90" />
         <path d="M130 80 Q 140 60 135 50" />

         <!-- Leaves (Filled) -->
         <path d="M100 92 Q 90 80 100 70 Q 110 80 100 92 Z" fill="#3D5A44" stroke="none" opacity="0.6" />
         <path d="M130 75 Q 145 70 150 80 Q 140 90 130 75 Z" fill="#3D5A44" stroke="none" opacity="0.6" />
     </g>
  </g>
</svg>
